<svg width="20" height="11" viewBox="0 0 20 11" fill="none" xmlns="http://www.w3.org/2000/svg">
<g filter="url(#filter0_i_1_2)">
<path d="M2.04031 1.27273V10H0.497692V1.27273H2.04031ZM6.48171 10.1278C5.84251 10.1278 5.28853 9.98722 4.81978 9.70597C4.35103 9.42472 3.98739 9.03125 3.72887 8.52557C3.47319 8.01989 3.34535 7.42898 3.34535 6.75284C3.34535 6.0767 3.47319 5.48437 3.72887 4.97585C3.98739 4.46733 4.35103 4.07244 4.81978 3.79119C5.28853 3.50994 5.84251 3.36932 6.48171 3.36932C7.12092 3.36932 7.67489 3.50994 8.14364 3.79119C8.61239 4.07244 8.97461 4.46733 9.23029 4.97585C9.48881 5.48437 9.61808 6.0767 9.61808 6.75284C9.61808 7.42898 9.48881 8.01989 9.23029 8.52557C8.97461 9.03125 8.61239 9.42472 8.14364 9.70597C7.67489 9.98722 7.12092 10.1278 6.48171 10.1278ZM6.49023 8.89205C6.83683 8.89205 7.1266 8.79687 7.35955 8.60653C7.59251 8.41335 7.7658 8.15483 7.87944 7.83097C7.99592 7.5071 8.05415 7.14631 8.05415 6.74858C8.05415 6.34801 7.99592 5.9858 7.87944 5.66193C7.7658 5.33523 7.59251 5.07528 7.35955 4.8821C7.1266 4.68892 6.83683 4.59233 6.49023 4.59233C6.13512 4.59233 5.83967 4.68892 5.60387 4.8821C5.37092 5.07528 5.1962 5.33523 5.07972 5.66193C4.96609 5.9858 4.90927 6.34801 4.90927 6.74858C4.90927 7.14631 4.96609 7.5071 5.07972 7.83097C5.1962 8.15483 5.37092 8.41335 5.60387 8.60653C5.83967 8.79687 6.13512 8.89205 6.49023 8.89205ZM10.9956 10V1.27273H16.5865V2.59801H12.5765V4.96733H16.2029V6.29261H12.5765V10H10.9956ZM17.9586 10V3.45455H19.5012V10H17.9586ZM18.7342 2.52557C18.4899 2.52557 18.2797 2.4446 18.1035 2.28267C17.9274 2.1179 17.8393 1.92045 17.8393 1.69034C17.8393 1.45739 17.9274 1.25994 18.1035 1.09801C18.2797 0.933238 18.4899 0.850852 18.7342 0.850852C18.9814 0.850852 19.1916 0.933238 19.3649 1.09801C19.541 1.25994 19.6291 1.45739 19.6291 1.69034C19.6291 1.92045 19.541 2.1179 19.3649 2.28267C19.1916 2.4446 18.9814 2.52557 18.7342 2.52557Z" fill="#5A4DEF"/>
</g>
<defs>
<filter id="filter0_i_1_2" x="0.497696" y="0.850853" width="19.1314" height="13.277" filterUnits="userSpaceOnUse" color-interpolation-filters="sRGB">
<feFlood flood-opacity="0" result="BackgroundImageFix"/>
<feBlend mode="normal" in="SourceGraphic" in2="BackgroundImageFix" result="shape"/>
<feColorMatrix in="SourceAlpha" type="matrix" values="0 0 0 0 0 0 0 0 0 0 0 0 0 0 0 0 0 0 127 0" result="hardAlpha"/>
<feOffset dy="4"/>
<feGaussianBlur stdDeviation="2"/>
<feComposite in2="hardAlpha" operator="arithmetic" k2="-1" k3="1"/>
<feColorMatrix type="matrix" values="0 0 0 0 0 0 0 0 0 0 0 0 0 0 0 0 0 0 0.25 0"/>
<feBlend mode="normal" in2="shape" result="effect1_innerShadow_1_2"/>
</filter>
</defs>
</svg>
