<svg width="20" height="18" viewBox="0 0 20 18" fill="none" xmlns="http://www.w3.org/2000/svg">
<path d="M16.9692 10.2501C16.8143 8.37227 16.0823 6.61984 14.9094 5.3004C13.5851 3.81054 11.816 3 10 3C8.18404 3 6.41488 3.81054 5.09056 5.3004C3.91773 6.61984 3.18568 8.37227 3.03083 10.2501C3.31793 10.0907 3.64837 10 4 10C5.10457 10 6 10.8954 6 12V15C6 16.1046 5.10457 17 4 17C2.89543 17 2 16.1046 2 15C1.44772 15 1 14.5523 1 14V11C1 8.38337 1.92289 5.85363 3.59574 3.97167C5.272 2.08588 7.5725 1 10 1C12.4275 1 14.728 2.08589 16.4043 3.97168C18.0771 5.85363 19 8.38337 19 11V14C19 14.5523 18.5523 15 18 15C18 16.1046 17.1046 17 16 17C14.8954 17 14 16.1046 14 15V12C14 10.8954 14.8954 10 16 10C16.3516 10 16.6821 10.0907 16.9692 10.2501Z" fill="#00E0FF" stroke="black" stroke-width="0.3" stroke-linecap="round" stroke-linejoin="round"/>
</svg>
